<?xml version="1.0" encoding="UTF-8" standalone="no"?>
<!DOCTYPE svg PUBLIC "-//W3C//DTD SVG 1.1//EN" "http://www.w3.org/Graphics/SVG/1.1/DTD/svg11.dtd">
<svg xmlns="http://www.w3.org/2000/svg" version="1.1" viewBox="0.00 0.00 500.00 500.00">
<path fill="#00bf62" d="
  M 252.3581 486.1310
  A 236.99 233.23 89.5 0 1 17.0689 251.1853
  A 236.99 233.23 89.5 0 1 248.2219 12.1690
  A 236.99 233.23 89.5 0 1 483.5111 247.1147
  A 236.99 233.23 89.5 0 1 252.3581 486.1310
  Z
  M 198.63 68.19
  Q 185.33 63.64 171.49 64.08
  C 164.36 64.31 154.23 66.01 145.56 64.88
  C 144.23 64.70 142.83 63.82 141.87 63.44
  A 1.28 0.52 27.6 0 0 140.94 63.35
  L 137.37 65.19
  Q 136.89 65.44 136.88 65.97
  Q 136.82 70.69 133.99 75.26
  Q 130.32 81.19 124.58 89.80
  Q 117.10 101.01 113.63 114.81
  A 1.79 1.78 -0.3 0 1 112.36 116.09
  C 102.41 118.75 93.66 123.03 84.99 129.08
  C 79.48 132.92 71.99 138.33 65.19 138.48
  Q 64.60 138.49 64.30 139.01
  L 62.38 142.34
  Q 62.09 142.84 62.38 143.33
  Q 63.94 145.96 64.06 148.11
  Q 64.51 155.95 63.59 163.34
  Q 61.78 177.94 64.15 190.44
  C 64.77 193.71 66.32 198.22 66.92 200.55
  Q 67.05 201.03 66.72 201.39
  C 65.01 203.30 61.93 205.83 60.11 207.80
  Q 53.49 214.91 49.11 223.81
  Q 45.39 231.36 43.14 235.68
  C 40.50 240.75 38.27 244.33 34.38 246.81
  Q 33.93 247.09 33.85 247.62
  Q 33.52 249.87 34.01 252.03
  Q 34.13 252.54 34.59 252.79
  C 35.61 253.36 36.73 253.96 37.54 255.02
  C 41.95 260.84 43.83 266.13 48.34 275.47
  Q 55.25 289.82 67.52 299.97
  A 1.52 1.52 0.0 0 1 67.99 301.67
  Q 63.10 315.27 64.22 331.23
  Q 65.14 344.13 65.30 349.01
  Q 65.46 353.81 63.41 357.75
  Q 63.17 358.21 63.32 358.70
  Q 64.04 361.10 65.74 362.59
  Q 66.13 362.93 66.64 362.94
  Q 70.64 363.01 74.29 365.16
  Q 79.52 368.23 88.70 374.49
  Q 100.38 382.46 114.65 385.84
  A 1.95 1.95 0.0 0 1 116.08 387.23
  Q 119.52 400.24 126.46 410.83
  Q 132.75 420.43 135.38 424.87
  Q 138.07 429.43 138.42 434.40
  Q 138.45 434.92 138.86 435.24
  Q 140.70 436.72 142.50 437.33
  A 1.19 1.16 40.1 0 0 143.44 437.26
  C 149.42 434.12 159.87 435.78 167.23 436.56
  Q 184.05 438.35 200.19 432.95
  A 1.21 1.20 -29.1 0 1 201.48 433.31
  Q 210.73 444.03 223.52 450.60
  C 229.38 453.61 237.89 457.09 244.04 462.07
  Q 244.42 462.38 246.39 464.80
  Q 247.98 466.76 251.98 465.77
  A 1.29 1.26 -81.3 0 0 252.75 465.19
  Q 254.89 461.56 261.18 458.44
  Q 268.10 454.99 274.77 451.79
  Q 289.97 444.50 300.32 431.93
  Q 300.66 431.52 301.17 431.69
  Q 315.69 436.50 330.58 435.56
  Q 334.60 435.31 346.32 434.55
  Q 353.92 434.06 358.02 436.36
  Q 358.57 436.67 359.11 436.36
  L 362.56 434.36
  A 0.75 0.75 0.0 0 0 362.94 433.69
  Q 362.90 430.24 363.90 428.14
  C 366.19 423.33 368.91 419.35 373.45 412.73
  Q 382.28 399.84 386.20 384.81
  A 1.56 1.56 0.0 0 1 387.32 383.69
  Q 401.27 379.91 412.05 372.49
  C 418.71 367.90 427.32 361.25 434.50 361.37
  Q 435.06 361.38 435.33 360.90
  L 437.31 357.49
  Q 437.59 357.00 437.30 356.51
  C 434.08 350.99 435.69 341.89 436.26 334.87
  Q 437.04 325.15 436.93 321.70
  Q 436.58 310.26 432.85 299.53
  A 1.39 1.39 0.0 0 1 433.27 298.00
  Q 443.75 289.13 450.06 277.10
  Q 451.93 273.51 455.57 266.04
  C 457.83 261.39 460.75 255.76 465.28 253.02
  Q 465.72 252.76 465.82 252.26
  Q 466.24 250.37 465.69 247.78
  Q 465.59 247.25 465.11 247.01
  Q 462.06 245.47 459.63 241.06
  Q 457.27 236.75 454.00 229.71
  C 448.50 217.85 442.38 208.29 432.32 199.89
  A 1.65 1.63 29.7 0 1 431.82 198.10
  C 435.47 187.57 436.18 176.77 435.31 165.03
  C 434.60 155.51 433.07 148.85 436.30 142.04
  Q 436.52 141.59 436.39 141.10
  Q 435.83 138.88 434.08 137.27
  A 1.42 1.40 -22.3 0 0 433.18 136.90
  Q 428.40 136.66 424.15 133.92
  Q 421.89 132.47 408.41 123.64
  Q 398.59 117.21 385.10 113.97
  A 1.92 1.92 0.0 0 1 383.70 112.63
  Q 380.65 101.79 376.04 93.44
  C 372.83 87.61 365.99 78.71 362.76 71.70
  Q 361.41 68.77 361.38 65.55
  A 1.17 1.17 0.0 0 0 360.97 64.66
  Q 359.27 63.20 357.36 62.48
  Q 356.87 62.29 356.41 62.53
  C 350.36 65.58 340.07 64.02 332.41 63.22
  Q 315.57 61.45 299.49 66.83
  A 1.19 1.18 60.3 0 1 298.22 66.48
  Q 289.81 56.66 278.41 50.39
  C 272.33 47.05 262.59 43.10 255.64 37.75
  C 254.50 36.87 254.05 35.94 253.26 34.72
  Q 252.97 34.28 252.46 34.12
  Q 250.25 33.40 247.86 34.00
  Q 247.32 34.13 247.02 34.59
  Q 244.49 38.44 237.27 42.02
  Q 235.54 42.87 224.11 48.43
  Q 209.49 55.53 199.28 68.00
  Q 199.02 68.32 198.63 68.19
  Z"
/>
<path fill="#00bf62" d="
  M 246.81 89.28
  Q 244.31 93.00 240.10 95.33
  Q 232.50 99.54 224.12 103.06
  A 0.71 0.70 73.7 0 1 223.15 102.52
  C 221.03 89.51 217.43 79.89 206.22 72.06
  A 0.61 0.61 0.0 0 1 206.10 71.17
  Q 214.13 61.26 226.27 55.29
  C 236.87 50.06 242.38 47.90 249.60 42.53
  A 0.82 0.81 -43.7 0 1 250.60 42.55
  C 254.15 45.40 257.42 47.71 261.58 49.74
  C 274.31 55.95 283.35 60.51 291.84 69.68
  A 0.65 0.64 49.1 0 1 291.78 70.62
  C 289.62 72.39 285.42 75.38 282.96 78.04
  C 276.55 84.97 273.83 92.09 271.12 101.03
  Q 270.98 101.48 270.54 101.32
  C 263.89 98.81 255.67 95.09 252.45 89.24
  Q 252.18 88.75 251.61 88.75
  L 247.82 88.75
  Q 247.17 88.75 246.81 89.28
  Z
  M 252.7738 58.0727
  A 3.47 3.24 -15.5 0 0 248.5641 55.8778
  A 3.47 3.24 -15.5 0 0 246.0862 59.9273
  A 3.47 3.24 -15.5 0 0 250.2959 62.1222
  A 3.47 3.24 -15.5 0 0 252.7738 58.0727
  Z
  M 248.1314 83.3820
  A 3.51 3.32 106.7 0 0 252.3200 80.9740
  A 3.51 3.32 106.7 0 0 250.1486 76.6580
  A 3.51 3.32 106.7 0 0 245.9600 79.0660
  A 3.51 3.32 106.7 0 0 248.1314 83.3820
  Z"
/>
<path fill="#00bf62" d="
  M 322.75 107.22
  C 318.27 110.34 309.25 109.77 304.14 109.34
  A 0.93 0.93 0.0 0 1 303.35 108.07
  C 307.99 96.32 308.86 85.42 303.22 73.94
  A 0.56 0.56 0.0 0 1 303.52 73.18
  C 314.63 68.92 325.71 69.69 338.65 70.72
  Q 346.70 71.36 354.38 70.91
  Q 354.94 70.87 355.14 71.40
  Q 357.66 78.19 362.98 86.00
  C 369.23 95.17 373.57 102.31 376.18 112.06
  A 0.45 0.45 0.0 0 1 375.78 112.63
  C 367.31 113.34 359.61 115.29 352.33 119.54
  C 347.98 122.09 343.89 126.18 339.56 130.26
  A 0.60 0.59 47.3 0 1 338.71 130.22
  Q 332.59 123.32 328.65 114.74
  C 327.95 113.21 328.12 111.58 328.03 110.15
  A 1.07 1.05 14.1 0 0 327.51 109.30
  L 323.83 107.18
  Q 323.28 106.86 322.75 107.22
  Z
  M 348.03 82.88
  A 3.34 3.34 0.0 0 0 344.69 79.54
  A 3.34 3.34 0.0 0 0 341.35 82.88
  A 3.34 3.34 0.0 0 0 344.69 86.22
  A 3.34 3.34 0.0 0 0 348.03 82.88
  Z
  M 336.08 99.99
  A 3.44 3.44 0.0 0 0 332.64 96.55
  A 3.44 3.44 0.0 0 0 329.20 99.99
  A 3.44 3.44 0.0 0 0 332.64 103.43
  A 3.44 3.44 0.0 0 0 336.08 99.99
  Z"
/>
<path fill="#00bf62" d="
  M 167.76 111.18
  Q 165.33 112.00 163.68 113.92
  Q 163.35 114.31 163.32 114.82
  C 162.99 121.04 158.89 127.08 154.92 132.19
  Q 154.69 132.48 154.46 132.19
  C 149.19 125.50 143.47 120.39 135.46 117.30
  C 131.21 115.66 126.54 115.16 121.52 114.71
  A 0.55 0.55 0.0 0 1 121.04 114.01
  C 123.76 104.18 128.35 96.77 135.10 86.65
  Q 139.71 79.75 143.36 72.36
  A 0.71 0.71 0.0 0 1 144.04 71.97
  Q 153.74 72.61 163.42 71.75
  Q 171.50 71.02 174.09 71.05
  C 180.24 71.11 188.33 71.88 194.66 74.42
  A 0.52 0.51 22.9 0 1 194.94 75.10
  Q 187.41 92.43 193.44 110.87
  A 0.82 0.81 -12.9 0 1 192.77 111.93
  Q 184.44 113.05 175.75 113.21
  Q 171.25 113.30 168.71 111.34
  Q 168.28 111.01 167.76 111.18
  Z
  M 154.80 87.05
  A 3.38 3.38 0.0 0 0 151.42 83.67
  A 3.38 3.38 0.0 0 0 148.04 87.05
  A 3.38 3.38 0.0 0 0 151.42 90.43
  A 3.38 3.38 0.0 0 0 154.80 87.05
  Z
  M 165.21 105.17
  A 3.40 3.40 0.0 0 0 161.81 101.77
  A 3.40 3.40 0.0 0 0 158.41 105.17
  A 3.40 3.40 0.0 0 0 161.81 108.57
  A 3.40 3.40 0.0 0 0 165.21 105.17
  Z"
/>
<path fill="#00bf62" d="
  M 296.80 76.74
  Q 304.22 92.59 295.16 108.03
  Q 294.92 108.45 294.43 108.50
  C 287.98 109.13 282.69 109.80 278.18 105.42
  Q 277.81 105.06 277.89 104.54
  Q 280.94 86.46 295.93 76.50
  A 0.60 0.59 -29.2 0 1 296.80 76.74
  Z"
/>
<path fill="#00bf62" d="
  M 215.36 107.82
  C 213.13 109.70 210.23 111.88 207.42 111.91
  Q 204.23 111.94 201.72 111.76
  A 0.90 0.90 0.0 0 1 200.95 111.20
  C 196.68 100.73 196.34 88.64 201.48 78.53
  Q 201.74 78.02 202.23 78.31
  C 212.02 84.01 216.36 95.92 215.79 106.95
  Q 215.76 107.48 215.36 107.82
  Z"
/>
<path fill="#00bf62" d="
  M 271.93 111.22
  Q 262.01 112.69 252.87 120.62
  Q 250.23 122.91 245.45 130.04
  Q 245.23 130.37 244.97 130.06
  Q 243.60 128.49 242.32 126.94
  C 237.93 121.64 232.17 117.85 225.76 115.52
  Q 222.30 114.27 220.78 113.62
  Q 220.26 113.40 220.74 113.10
  Q 225.78 109.96 227.53 109.27
  Q 238.91 104.80 249.02 98.06
  A 1.10 1.09 -43.4 0 1 250.29 98.09
  C 255.37 101.94 259.02 103.95 265.57 107.12
  Q 270.56 109.53 272.04 110.82
  Q 272.42 111.15 271.93 111.22
  Z"
/>
<path fill="#00bf62" d="
  M 293.71 115.76
  C 300.84 115.95 311.79 116.91 320.79 115.72
  A 0.69 0.67 -16.0 0 1 321.49 116.10
  Q 325.93 125.49 334.31 136.12
  Q 336.27 138.61 337.68 141.72
  A 0.36 0.36 0.0 0 1 337.28 142.23
  C 326.84 140.19 317.44 140.77 308.23 146.35
  A 0.53 0.53 0.0 0 1 307.42 145.90
  C 307.38 133.77 301.80 124.70 293.44 116.39
  Q 292.78 115.74 293.71 115.76
  Z"
/>
<path fill="#00bf62" d="
  M 282.25 116.69
  Q 282.61 116.78 282.65 116.81
  Q 290.22 121.66 295.39 129.34
  Q 304.39 142.70 296.97 157.21
  A 0.93 0.93 0.0 0 1 295.75 157.63
  C 288.49 154.26 281.19 150.95 273.71 148.97
  C 266.22 146.99 258.24 146.26 250.27 145.60
  A 0.93 0.93 0.0 0 1 249.41 144.62
  Q 250.14 128.34 264.57 121.18
  Q 272.87 117.07 281.84 116.59
  Q 281.89 116.59 282.25 116.69
  Z"
/>
<path fill="#00bf62" d="
  M 156.26 143.65
  C 160.00 137.61 166.31 128.69 169.80 120.36
  A 0.68 0.67 -75.8 0 1 170.48 119.95
  Q 180.77 120.83 194.10 118.96
  Q 197.23 118.52 200.61 118.87
  A 0.36 0.36 0.0 0 1 200.84 119.47
  C 193.86 127.42 189.65 135.79 189.82 146.50
  A 0.53 0.53 0.0 0 1 189.03 146.97
  C 178.59 140.92 168.01 141.17 156.67 144.19
  Q 155.78 144.43 156.26 143.65
  Z"
/>
<path fill="#00bf62" d="
  M 239.03 146.07
  Q 218.67 147.57 200.66 156.69
  A 0.81 0.80 63.8 0 1 199.57 156.31
  C 192.80 142.09 199.39 128.62 211.06 119.77
  A 1.80 1.79 -60.7 0 1 212.29 119.42
  C 227.66 120.81 239.75 128.89 241.96 144.93
  Q 242.06 145.63 241.36 145.76
  Q 240.14 145.99 239.03 146.07
  Z"
/>
<path fill="#00bf62" d="
  M 347.11 144.26
  Q 346.07 142.04 344.12 138.26
  Q 343.46 136.97 344.50 135.71
  Q 353.40 124.91 365.90 121.37
  Q 372.11 119.61 376.99 120.13
  Q 377.71 120.20 377.75 120.92
  C 378.45 133.53 371.92 143.53 361.28 150.01
  Q 359.06 151.36 357.45 150.66
  Q 354.86 149.54 349.82 147.14
  Q 348.07 146.31 347.11 144.26
  Z"
/>
<path fill="#00bf62" d="
  M 389.48 171.24
  L 387.47 167.76
  Q 387.09 167.11 386.34 167.03
  C 384.19 166.80 383.13 166.80 381.60 166.11
  Q 373.33 162.38 366.51 156.17
  A 0.50 0.50 0.0 0 1 366.52 155.42
  Q 368.97 153.36 372.74 149.98
  Q 381.03 142.54 383.78 131.27
  Q 384.33 129.04 385.11 122.05
  Q 385.17 121.52 385.69 121.61
  C 390.78 122.46 395.68 124.67 400.31 127.00
  C 409.48 131.63 417.19 139.12 426.90 142.84
  A 1.35 1.34 -78.1 0 1 427.75 144.15
  Q 427.42 150.97 428.09 162.04
  Q 428.88 175.01 428.68 178.12
  Q 428.20 185.64 425.97 194.05
  Q 425.61 195.42 424.30 194.87
  Q 406.68 187.44 388.76 193.59
  A 0.89 0.88 77.9 0 1 387.59 192.83
  Q 386.83 184.77 387.38 177.43
  Q 387.56 174.99 389.46 171.95
  Q 389.69 171.60 389.48 171.24
  Z
  M 418.66 152.03
  A 3.39 3.39 0.0 0 0 415.27 148.64
  A 3.39 3.39 0.0 0 0 411.88 152.03
  A 3.39 3.39 0.0 0 0 415.27 155.42
  A 3.39 3.39 0.0 0 0 418.66 152.03
  Z
  M 396.6457 167.0226
  A 3.50 3.25 110.3 0 0 400.9081 164.8675
  A 3.50 3.25 110.3 0 0 399.0743 160.4574
  A 3.50 3.25 110.3 0 0 394.8119 162.6125
  A 3.50 3.25 110.3 0 0 396.6457 167.0226
  Z"
/>
<path fill="#00bf62" d="
  M 135.26 154.13
  C 124.89 147.26 118.63 135.41 119.70 122.80
  Q 119.74 122.29 120.25 122.23
  C 132.71 120.74 144.33 128.10 150.01 138.90
  A 1.84 1.82 -44.1 0 1 149.97 140.67
  L 145.43 148.54
  A 1.66 1.62 -89.0 0 1 144.80 149.16
  L 136.16 154.15
  A 0.86 0.85 -43.3 0 1 135.26 154.13
  Z"
/>
<path fill="#00bf62" d="
  M 109.87 170.00
  A 1.32 1.32 0.0 0 0 109.84 171.28
  C 111.99 175.44 111.76 179.13 111.56 184.62
  Q 111.32 190.68 110.41 196.62
  A 0.62 0.61 15.9 0 1 109.56 197.09
  Q 105.90 195.54 102.77 194.53
  Q 88.07 189.75 73.68 196.65
  Q 73.19 196.89 73.00 196.38
  C 68.68 185.09 69.68 173.52 70.71 161.67
  Q 71.40 153.66 70.94 145.49
  Q 70.91 145.00 71.38 144.80
  Q 79.28 141.51 85.93 136.91
  Q 93.92 131.39 97.83 129.07
  Q 101.53 126.87 111.53 123.54
  Q 112.08 123.36 112.16 123.93
  Q 112.30 125.01 112.83 129.99
  C 114.17 142.62 119.95 149.84 128.54 158.25
  A 0.56 0.56 0.0 0 1 128.49 159.10
  C 124.40 162.19 118.05 166.38 112.64 166.20
  A 0.98 0.98 0.0 0 0 111.78 166.68
  L 109.87 170.00
  Z
  M 87.34 153.55
  A 3.30 3.30 0.0 0 0 84.04 150.25
  A 3.30 3.30 0.0 0 0 80.74 153.55
  A 3.30 3.30 0.0 0 0 84.04 156.85
  A 3.30 3.30 0.0 0 0 87.34 153.55
  Z
  M 101.1187 167.3484
  A 3.43 3.26 108.2 0 0 105.2869 165.1082
  A 3.43 3.26 108.2 0 0 103.2613 160.8316
  A 3.43 3.26 108.2 0 0 99.0931 163.0718
  A 3.43 3.26 108.2 0 0 101.1187 167.3484
  Z"
/>
<path fill="#00bf62" d="
  M 337.05 189.31
  Q 335.05 190.92 334.30 191.38
  A 1.13 1.12 -32.8 0 1 332.78 191.06
  Q 321.42 174.36 304.60 162.92
  A 1.52 1.52 0.0 0 1 304.16 160.86
  Q 308.41 154.03 314.63 150.87
  C 323.03 146.60 333.81 147.44 342.36 151.40
  A 1.91 1.89 1.8 0 1 343.34 152.43
  C 348.53 165.66 348.99 179.71 337.05 189.31
  Z"
/>
<path fill="#00bf62" d="
  M 173.71 176.59
  Q 165.99 184.38 159.03 195.08
  A 1.17 1.16 32.8 0 1 157.42 195.42
  C 143.02 186.24 144.49 168.85 150.49 155.25
  Q 150.79 154.56 151.14 154.21
  Q 151.50 153.85 152.19 153.54
  C 165.73 147.43 183.11 145.82 192.41 160.14
  A 1.17 1.16 56.7 0 1 192.08 161.75
  Q 181.44 168.80 173.71 176.59
  Z"
/>
<path fill="#00bf62" d="
  M 353.23 161.99
  Q 352.81 159.59 352.30 156.80
  A 0.33 0.32 6.6 0 1 352.75 156.45
  Q 355.16 157.50 357.00 158.80
  C 365.82 165.05 371.56 169.23 380.36 173.44
  Q 380.81 173.66 380.76 174.16
  Q 379.69 185.13 380.99 198.11
  Q 381.06 198.85 381.00 199.24
  A 0.45 0.45 0.0 0 1 380.24 199.51
  C 371.36 191.18 362.54 186.32 350.03 186.53
  A 0.52 0.51 13.3 0 1 349.56 185.78
  Q 355.42 174.59 353.23 161.99
  Z"
/>
<path fill="#00bf62" d="
  M 121.85 202.73
  Q 119.98 204.30 117.83 206.15
  A 0.33 0.32 66.5 0 1 117.30 205.93
  Q 116.99 203.32 117.20 201.07
  C 118.17 190.30 118.91 183.23 118.13 173.50
  Q 118.10 173.00 118.55 172.79
  Q 128.59 168.21 139.17 160.56
  Q 139.77 160.13 140.14 159.99
  A 0.45 0.45 0.0 0 1 140.76 160.51
  C 138.01 172.38 138.23 182.45 144.70 193.18
  A 0.52 0.51 73.2 0 1 144.29 193.96
  Q 131.66 194.51 121.85 202.73
  Z"
/>
<path fill="#00bf62" d="
  M 369.91 199.80
  C 373.16 202.27 380.81 208.63 380.51 212.76
  C 379.29 229.35 369.72 244.79 351.65 244.71
  Q 350.43 244.71 350.37 243.49
  Q 349.29 220.37 338.22 199.97
  A 1.21 1.20 60.4 0 1 338.66 198.36
  Q 355.15 188.58 369.91 199.80
  Z"
/>
<path fill="#00bf62" d="
  M 388.14 207.53
  Q 388.10 204.35 388.28 201.85
  A 0.90 0.90 0.0 0 1 388.84 201.08
  C 399.27 196.80 411.33 196.44 421.42 201.55
  Q 421.93 201.81 421.64 202.30
  C 415.98 212.07 404.10 216.42 393.10 215.87
  Q 392.57 215.84 392.23 215.44
  C 390.35 213.22 388.17 210.33 388.14 207.53
  Z"
/>
<path fill="#00bf62" d="
  M 76.69 203.77
  A 0.57 0.56 -27.1 0 1 76.95 203.01
  C 87.33 197.66 99.94 199.06 109.20 205.31
  C 110.42 206.14 110.19 208.10 110.29 209.19
  C 110.52 211.57 110.94 214.77 109.46 217.20
  Q 107.72 220.05 106.57 221.56
  A 1.27 1.26 -66.6 0 1 105.39 222.03
  C 94.41 220.51 81.76 214.03 76.69 203.77
  Z"
/>
<path fill="#00bf62" d="
  M 146.88 224.07
  Q 144.38 234.05 143.88 245.09
  A 0.51 0.51 0.0 0 1 143.32 245.57
  C 128.62 244.10 120.68 232.71 118.26 219.06
  Q 117.99 217.57 118.16 216.89
  Q 118.34 216.20 119.27 215.02
  C 127.83 204.11 140.19 197.80 153.86 203.41
  A 0.51 0.51 0.0 0 1 154.12 204.10
  Q 149.38 214.08 146.88 224.07
  Z"
/>
<path fill="#00bf62" d="
  M 409.65 246.57
  Q 409.91 244.69 409.52 242.93
  Q 409.43 242.50 409.01 242.13
  C 407.94 241.17 406.09 240.24 404.94 238.67
  Q 400.01 231.87 396.76 223.94
  Q 396.58 223.48 397.04 223.29
  C 399.13 222.45 402.92 222.22 404.86 221.74
  Q 418.91 218.26 427.63 206.44
  A 0.87 0.86 -51.6 0 1 428.88 206.29
  Q 438.81 214.70 444.87 226.70
  Q 446.75 230.42 450.63 238.87
  Q 452.31 242.54 456.81 249.01
  A 1.59 1.59 0.0 0 1 456.80 250.83
  Q 452.09 257.48 448.39 264.97
  Q 443.18 275.50 441.28 278.40
  Q 436.40 285.89 430.04 291.60
  A 0.70 0.70 0.0 0 1 429.01 291.48
  Q 421.51 281.04 410.82 275.47
  C 406.71 273.32 402.06 272.31 396.30 270.69
  A 0.63 0.63 0.0 0 1 395.88 269.86
  Q 399.17 260.89 404.23 252.49
  Q 406.05 249.48 408.96 247.64
  A 1.53 1.50 78.4 0 0 409.65 246.57
  Z
  M 424.27 245.90
  A 3.30 3.30 0.0 0 0 420.97 242.60
  A 3.30 3.30 0.0 0 0 417.67 245.90
  A 3.30 3.30 0.0 0 0 420.97 249.20
  A 3.30 3.30 0.0 0 0 424.27 245.90
  Z
  M 445.20 248.31
  A 3.39 3.39 0.0 0 0 441.81 244.92
  A 3.39 3.39 0.0 0 0 438.42 248.31
  A 3.39 3.39 0.0 0 0 441.81 251.70
  A 3.39 3.39 0.0 0 0 445.20 248.31
  Z"
/>
<path fill="#00bf62" d="
  M 89.00 251.68
  Q 88.63 253.58 89.07 255.69
  Q 89.17 256.19 89.61 256.46
  C 94.06 259.24 96.30 263.45 99.15 268.80
  Q 100.98 272.24 102.42 276.16
  A 0.52 0.52 0.0 0 1 102.01 276.85
  C 91.67 278.43 82.39 281.59 75.57 289.32
  Q 72.52 292.78 71.87 293.45
  A 0.50 0.49 -48.7 0 1 71.22 293.50
  Q 64.84 288.66 60.29 281.98
  Q 57.13 277.36 54.30 271.54
  Q 48.45 259.50 47.69 258.10
  Q 45.47 254.00 42.57 250.33
  Q 42.07 249.70 42.57 249.07
  C 52.42 236.57 56.05 219.37 69.59 207.95
  A 0.93 0.92 -36.8 0 1 70.96 208.14
  Q 79.69 221.43 94.76 226.50
  Q 96.61 227.12 101.55 228.62
  Q 102.50 228.91 102.14 229.83
  Q 99.19 237.38 95.36 244.14
  Q 92.83 248.62 89.53 250.88
  Q 89.10 251.18 89.00 251.68
  Z
  M 55.57 251.43
  A 3.31 3.31 0.0 0 0 52.26 248.12
  A 3.31 3.31 0.0 0 0 48.95 251.43
  A 3.31 3.31 0.0 0 0 52.26 254.74
  A 3.31 3.31 0.0 0 0 55.57 251.43
  Z
  M 76.51 252.74
  A 3.38 3.38 0.0 0 0 73.13 249.36
  A 3.38 3.38 0.0 0 0 69.75 252.74
  A 3.38 3.38 0.0 0 0 73.13 256.12
  A 3.38 3.38 0.0 0 0 76.51 252.74
  Z"
/>
<path fill="#00bf62" d="
  M 387.11 221.20
  C 390.48 227.49 395.06 237.47 400.54 244.69
  A 0.69 0.67 44.3 0 1 400.56 245.48
  Q 394.61 253.99 389.53 266.51
  Q 388.34 269.45 386.33 272.22
  A 0.36 0.36 0.0 0 1 385.69 272.12
  C 382.30 262.05 377.14 254.17 367.75 248.93
  A 0.53 0.53 0.0 0 1 367.74 248.01
  C 378.25 241.98 383.36 232.65 386.44 221.28
  Q 386.68 220.39 387.11 221.20
  Z"
/>
<path fill="#00bf62" d="
  M 111.39 277.40
  C 108.00 271.07 103.39 261.03 97.87 253.76
  A 0.69 0.67 44.3 0 1 97.85 252.96
  Q 103.84 244.40 108.95 231.79
  Q 110.15 228.83 112.17 226.05
  A 0.36 0.36 0.0 0 1 112.81 226.15
  C 116.23 236.28 121.42 244.21 130.88 249.48
  A 0.54 0.53 44.5 0 1 130.89 250.41
  C 120.31 256.48 115.17 265.87 112.07 277.32
  Q 111.83 278.22 111.39 277.40
  Z"
/>
<path fill="#00bf62" d="
  M 380.20 281.46
  Q 380.00 282.26 379.11 283.40
  C 369.36 295.89 356.67 301.28 341.62 293.75
  A 0.96 0.96 0.0 0 1 341.17 292.51
  Q 345.60 282.37 347.72 273.60
  Q 349.84 264.83 350.54 253.79
  A 0.96 0.96 0.0 0 1 351.50 252.89
  C 368.33 253.07 377.15 263.66 380.12 279.23
  Q 380.39 280.65 380.20 281.46
  Z"
/>
<path fill="#00bf62" d="
  M 148.06 278.74
  C 150.35 286.45 153.62 293.73 157.51 300.73
  Q 158.05 301.69 157.06 302.15
  C 142.06 309.18 128.55 301.29 119.23 289.57
  Q 118.38 288.51 118.12 287.61
  Q 117.85 286.71 117.98 285.36
  C 119.41 270.45 126.45 256.48 142.85 254.20
  Q 143.93 254.05 144.01 255.15
  C 144.56 263.14 145.78 271.02 148.06 278.74
  Z"
/>
<path fill="#00bf62" d="
  M 392.91 277.55
  C 404.21 278.84 417.35 285.17 422.80 295.56
  A 0.59 0.58 -28.5 0 1 422.56 296.35
  C 412.04 302.09 399.08 300.97 389.43 294.80
  C 388.15 293.98 388.34 291.96 388.21 290.84
  C 387.91 288.41 387.40 285.14 388.86 282.61
  Q 390.57 279.64 391.72 278.06
  A 1.30 1.29 -68.0 0 1 392.91 277.55
  Z"
/>
<path fill="#00bf62" d="
  M 78.20 297.50
  C 84.11 288.24 94.49 283.79 105.05 283.68
  Q 106.68 283.66 107.64 285.10
  C 109.36 287.68 110.78 289.15 110.69 292.31
  Q 110.59 295.78 110.47 297.90
  A 1.50 1.50 0.0 0 1 109.50 299.22
  C 99.51 303.03 87.71 303.57 78.32 298.05
  A 0.39 0.39 0.0 0 1 78.20 297.50
  Z"
/>
<path fill="#00bf62" d="
  M 376.76 295.73
  Q 378.64 294.16 380.81 292.32
  A 0.33 0.32 66.7 0 1 381.34 292.53
  Q 381.64 295.16 381.42 297.41
  C 380.39 308.23 379.62 315.32 380.36 325.10
  Q 380.39 325.60 379.93 325.81
  Q 369.83 330.36 359.17 337.99
  Q 358.56 338.42 358.19 338.56
  A 0.46 0.46 0.0 0 1 357.58 338.04
  C 360.39 326.13 360.21 316.01 353.77 305.22
  A 0.52 0.51 73.5 0 1 354.19 304.43
  Q 366.87 303.94 376.76 295.73
  Z"
/>
<path fill="#00bf62" d="
  M 145.26 336.52
  Q 145.68 338.92 146.18 341.72
  A 0.33 0.32 6.7 0 1 145.73 342.07
  Q 143.32 341.01 141.48 339.70
  C 132.66 333.42 126.92 329.22 118.11 324.99
  Q 117.66 324.77 117.72 324.27
  Q 118.81 313.28 117.54 300.28
  Q 117.47 299.54 117.53 299.15
  A 0.46 0.45 -64.4 0 1 118.29 298.88
  C 127.17 307.24 135.99 312.13 148.52 311.94
  A 0.52 0.51 13.5 0 1 148.99 312.70
  Q 143.10 323.89 145.26 336.52
  Z"
/>
<path fill="#00bf62" d="
  M 338.55 300.07
  C 353.98 308.97 354.67 326.24 348.86 341.67
  C 348.22 343.35 347.89 344.24 346.25 344.93
  Q 339.54 347.79 332.70 348.90
  Q 314.43 351.88 304.72 336.64
  A 1.26 1.26 0.0 0 1 305.03 334.96
  C 313.83 328.35 321.87 321.88 328.55 313.06
  Q 332.04 308.46 337.28 300.38
  A 0.95 0.95 0.0 0 1 338.55 300.07
  Z"
/>
<path fill="#00bf62" d="
  M 388.96 327.48
  C 388.59 325.85 387.26 324.61 387.14 322.37
  Q 386.59 312.61 388.14 303.21
  A 0.81 0.81 0.0 0 1 389.25 302.60
  C 401.58 307.81 413.19 308.62 425.75 302.91
  A 0.75 0.75 0.0 0 1 426.77 303.34
  C 430.61 314.45 430.53 325.74 428.97 338.05
  Q 428.10 344.95 428.81 354.30
  Q 428.84 354.80 428.39 355.00
  Q 419.17 359.11 410.44 365.27
  C 405.39 368.83 400.88 371.12 394.89 373.88
  Q 391.46 375.47 387.45 376.18
  Q 386.90 376.27 386.83 375.72
  C 386.43 372.63 386.43 368.89 385.73 365.92
  C 383.36 355.81 377.75 347.55 370.32 340.43
  Q 369.61 339.75 370.38 339.13
  C 374.15 336.09 381.47 331.85 385.66 332.29
  A 1.41 1.40 17.6 0 0 387.02 331.59
  L 388.80 328.51
  Q 389.08 328.03 388.96 327.48
  Z
  M 399.7355 339.9822
  A 3.48 3.27 109.9 0 0 403.9947 337.8230
  A 3.48 3.27 109.9 0 0 402.1045 333.4378
  A 3.48 3.27 109.9 0 0 397.8453 335.5970
  A 3.48 3.27 109.9 0 0 399.7355 339.9822
  Z
  M 422.27 347.30
  A 3.32 3.32 0.0 0 0 418.95 343.98
  A 3.32 3.32 0.0 0 0 415.63 347.30
  A 3.32 3.32 0.0 0 0 418.95 350.62
  A 3.32 3.32 0.0 0 0 422.27 347.30
  Z"
/>
<path fill="#00bf62" d="
  M 109.50 327.76
  Q 110.55 329.85 111.35 330.94
  Q 111.60 331.28 112.20 331.35
  C 113.30 331.46 115.23 331.35 116.66 332.05
  Q 125.77 336.50 133.98 343.28
  A 0.52 0.52 0.0 0 1 133.96 344.10
  C 129.15 347.73 124.26 351.62 121.25 356.19
  Q 115.25 365.33 114.78 377.46
  A 0.79 0.79 0.0 0 1 113.80 378.20
  C 104.78 375.97 97.34 372.11 89.45 366.66
  C 82.60 361.92 78.86 359.52 72.46 356.72
  A 1.17 1.17 0.0 0 1 71.76 355.56
  Q 72.54 345.82 71.53 335.76
  C 70.49 325.50 70.65 314.96 74.17 305.28
  A 0.81 0.81 0.0 0 1 75.25 304.81
  Q 91.72 311.99 109.89 306.62
  A 0.92 0.91 78.1 0 1 111.05 307.38
  Q 112.04 314.74 110.99 322.44
  C 110.76 324.07 108.67 326.09 109.50 327.76
  Z
  M 95.2484 343.0453
  A 3.44 3.28 107.8 0 0 99.4230 340.7727
  A 3.44 3.28 107.8 0 0 97.3516 336.4947
  A 3.44 3.28 107.8 0 0 93.1770 338.7673
  A 3.44 3.28 107.8 0 0 95.2484 343.0453
  Z
  M 82.27 351.56
  A 3.36 3.36 0.0 0 0 78.91 348.20
  A 3.36 3.36 0.0 0 0 75.55 351.56
  A 3.36 3.36 0.0 0 0 78.91 354.92
  A 3.36 3.36 0.0 0 0 82.27 351.56
  Z"
/>
<path fill="#00bf62" d="
  M 155.20 346.03
  C 149.86 332.36 149.65 318.63 161.56 308.78
  A 0.97 0.97 0.0 0 1 162.98 308.96
  Q 175.27 326.26 193.41 337.40
  A 1.15 1.15 0.0 0 1 193.68 339.14
  C 187.19 346.58 177.84 351.24 167.78 349.79
  Q 161.43 348.87 156.34 347.13
  A 1.90 1.86 88.4 0 1 155.20 346.03
  Z"
/>
<path fill="#00bf62" d="
  M 294.20 371.94
  Q 290.05 376.74 287.27 378.88
  A 1.31 1.27 27.9 0 1 286.38 379.14
  Q 273.59 377.95 265.37 370.96
  C 260.95 367.19 256.18 359.46 257.80 353.03
  A 1.26 1.26 0.0 0 1 258.88 352.08
  C 273.16 350.45 284.92 346.06 297.41 339.85
  A 0.98 0.98 0.0 0 1 298.72 340.28
  C 304.20 350.85 301.87 363.09 294.20 371.94
  Z"
/>
<path fill="#00bf62" d="
  M 201.75 342.02
  Q 223.45 352.77 247.86 352.34
  Q 249.25 352.32 249.62 353.66
  C 250.59 357.22 248.94 361.35 246.99 364.56
  C 240.36 375.43 230.49 379.81 218.44 381.91
  Q 216.67 382.22 215.51 381.34
  Q 209.57 376.82 206.68 373.55
  C 198.70 364.51 195.25 353.01 201.01 342.25
  A 0.56 0.56 0.0 0 1 201.75 342.02
  Z"
/>
<path fill="#00bf62" d="
  M 379.10 377.78
  C 365.42 378.34 354.68 370.83 348.68 359.12
  A 1.47 1.47 0.0 0 1 348.69 357.75
  L 352.80 350.01
  A 1.87 1.85 -89.9 0 1 353.54 349.27
  Q 357.84 346.87 359.48 345.99
  Q 362.22 344.51 362.28 344.50
  C 363.98 343.99 364.84 345.15 366.04 346.22
  C 374.91 354.18 380.35 365.16 379.72 377.17
  A 0.65 0.65 0.0 0 1 379.10 377.78
  Z"
/>
<path fill="#00bf62" d="
  M 122.02 379.17
  C 121.34 365.32 128.86 354.39 140.67 348.22
  A 1.49 1.49 0.0 0 1 142.05 348.22
  L 149.92 352.32
  A 1.90 1.87 -0.4 0 1 150.68 353.06
  Q 153.14 357.39 154.05 359.05
  Q 155.57 361.81 155.58 361.87
  C 156.11 363.59 154.94 364.47 153.87 365.69
  C 145.88 374.74 134.81 380.33 122.64 379.79
  A 0.65 0.65 0.0 0 1 122.02 379.17
  Z"
/>
<path fill="#00bf62" d="
  M 342.25 354.95
  C 338.49 360.98 332.14 369.89 328.62 378.21
  A 0.68 0.67 -75.6 0 1 327.94 378.63
  Q 317.64 377.70 304.29 379.53
  Q 301.16 379.96 297.78 379.60
  A 0.36 0.36 0.0 0 1 297.55 379.00
  C 304.56 371.07 308.81 362.70 308.67 351.98
  A 0.53 0.53 0.0 0 1 309.46 351.51
  C 319.89 357.60 330.49 357.39 341.85 354.40
  Q 342.74 354.17 342.25 354.95
  Z"
/>
<path fill="#00bf62" d="
  M 204.77 382.70
  C 197.58 382.46 186.56 381.41 177.48 382.55
  A 0.69 0.67 -15.6 0 1 176.78 382.16
  Q 172.36 372.67 163.99 361.90
  Q 162.03 359.38 160.63 356.23
  A 0.36 0.36 0.0 0 1 161.04 355.72
  C 171.54 357.85 181.03 357.33 190.35 351.77
  A 0.54 0.53 -15.4 0 1 191.16 352.23
  C 191.11 364.45 196.67 373.63 205.05 382.07
  Q 205.71 382.73 204.77 382.70
  Z"
/>
<path fill="#00bf62" d="
  M 330.90 387.20
  Q 332.99 386.41 334.84 384.72
  Q 335.22 384.38 335.20 383.87
  C 334.99 377.90 340.05 370.98 343.47 366.35
  A 0.69 0.68 46.3 0 1 344.60 366.38
  Q 356.49 384.22 377.46 385.04
  A 0.81 0.81 0.0 0 1 378.22 386.04
  C 375.33 398.33 368.09 408.01 361.07 418.74
  C 359.41 421.28 357.66 425.47 356.63 427.44
  Q 356.39 427.90 355.89 427.94
  Q 354.72 428.03 353.45 427.87
  C 348.09 427.18 342.24 427.67 336.68 428.16
  C 325.90 429.11 315.25 429.22 305.01 425.40
  Q 304.48 425.20 304.71 424.69
  Q 311.27 410.24 307.93 394.91
  Q 307.10 391.14 306.03 387.24
  A 0.76 0.75 -12.1 0 1 306.65 386.29
  Q 315.29 385.05 324.27 385.22
  Q 327.03 385.28 330.02 387.12
  A 0.99 0.99 0.0 0 0 330.90 387.20
  Z
  M 341.68 395.74
  A 3.35 3.35 0.0 0 0 338.33 392.39
  A 3.35 3.35 0.0 0 0 334.98 395.74
  A 3.35 3.35 0.0 0 0 338.33 399.09
  A 3.35 3.35 0.0 0 0 341.68 395.74
  Z
  M 352.12 413.97
  A 3.35 3.35 0.0 0 0 348.77 410.62
  A 3.35 3.35 0.0 0 0 345.42 413.97
  A 3.35 3.35 0.0 0 0 348.77 417.32
  A 3.35 3.35 0.0 0 0 352.12 413.97
  Z"
/>
<path fill="#00bf62" d="
  M 226.39 387.46
  Q 243.85 382.67 253.29 368.40
  Q 253.60 367.93 253.93 368.38
  Q 262.76 380.62 277.55 384.83
  Q 278.22 385.02 277.61 385.36
  C 273.75 387.54 270.71 389.56 266.02 391.61
  Q 257.33 395.40 249.80 400.56
  A 1.00 0.99 44.6 0 1 248.67 400.56
  Q 239.75 394.52 227.55 388.68
  Q 226.91 388.37 226.31 387.80
  Q 226.05 387.55 226.39 387.46
  Z"
/>
<path fill="#00bf62" d="
  M 175.58 391.27
  C 179.79 389.01 183.38 389.01 188.77 388.96
  Q 192.79 388.93 196.86 389.55
  A 0.55 0.54 -72.5 0 1 197.26 390.33
  Q 188.41 408.09 196.35 425.78
  Q 196.68 426.53 195.90 426.77
  Q 186.01 429.90 175.52 430.06
  C 166.71 430.20 155.62 427.45 145.65 428.97
  A 0.97 0.96 -12.0 0 1 144.58 428.28
  Q 144.09 426.50 143.41 425.17
  Q 139.98 418.41 132.20 406.73
  Q 125.93 397.31 123.86 387.91
  A 0.68 0.66 -10.5 0 1 124.42 387.11
  Q 130.08 386.29 133.26 385.70
  C 144.13 383.68 152.45 377.64 159.93 369.65
  A 0.64 0.64 0.0 0 1 160.90 369.69
  C 164.84 374.65 170.32 382.00 170.79 388.39
  Q 170.84 389.05 171.41 389.38
  L 174.65 391.25
  Q 175.11 391.52 175.58 391.27
  Z
  M 165.96 403.49
  A 3.37 3.37 0.0 0 0 162.59 400.12
  A 3.37 3.37 0.0 0 0 159.22 403.49
  A 3.37 3.37 0.0 0 0 162.59 406.86
  A 3.37 3.37 0.0 0 0 165.96 403.49
  Z
  M 153.90 420.62
  A 3.42 3.42 0.0 0 0 150.48 417.20
  A 3.42 3.42 0.0 0 0 147.06 420.62
  A 3.42 3.42 0.0 0 0 150.48 424.04
  A 3.42 3.42 0.0 0 0 153.90 420.62
  Z"
/>
<path fill="#00bf62" d="
  M 297.54 421.71
  C 287.35 415.59 282.22 404.48 281.79 393.06
  Q 281.72 391.29 283.25 390.21
  C 285.99 388.28 287.54 386.70 290.96 386.70
  Q 294.72 386.70 297.02 386.77
  A 1.63 1.62 -10.3 0 1 298.48 387.78
  C 302.90 398.48 303.83 411.24 298.13 421.56
  A 0.43 0.42 30.1 0 1 297.54 421.71
  Z"
/>
<path fill="#00bf62" d="
  M 203.77 423.10
  A 0.57 0.56 62.6 0 1 203.00 422.86
  C 197.63 412.53 198.97 399.96 205.15 390.70
  C 205.97 389.48 207.93 389.70 209.02 389.59
  C 211.39 389.35 214.57 388.92 217.00 390.38
  Q 219.85 392.10 221.37 393.25
  A 1.26 1.25 23.1 0 1 221.84 394.42
  C 220.37 405.37 213.96 418.01 203.77 423.10
  Z"
/>
<path fill="#00bf62" d="
  M 251.99 409.05
  C 252.60 408.15 253.34 406.49 254.66 405.58
  Q 263.47 399.46 274.07 395.67
  Q 274.65 395.47 274.78 396.07
  Q 275.43 399.11 275.98 401.88
  C 278.28 413.48 284.49 420.73 293.62 428.00
  Q 293.91 428.24 293.68 428.54
  C 288.08 435.57 280.33 441.19 271.66 445.36
  C 262.11 449.94 256.12 452.54 250.28 457.07
  A 0.89 0.89 0.0 0 1 249.20 457.07
  Q 245.24 454.05 239.98 450.97
  Q 238.63 450.18 230.10 446.09
  Q 221.50 441.96 213.53 435.48
  Q 210.51 433.03 208.22 429.85
  A 0.74 0.73 -35.4 0 1 208.40 428.82
  Q 221.72 419.54 226.78 404.32
  Q 228.44 399.31 228.89 398.02
  Q 229.05 397.56 229.51 397.73
  Q 235.14 399.89 241.52 404.21
  Q 243.97 405.87 245.12 407.49
  Q 246.51 409.45 247.63 409.64
  Q 250.06 410.05 251.26 409.71
  Q 251.61 409.61 251.99 409.05
  Z
  M 253.51 419.64
  A 3.28 3.28 0.0 0 0 250.23 416.36
  A 3.28 3.28 0.0 0 0 246.95 419.64
  A 3.28 3.28 0.0 0 0 250.23 422.92
  A 3.28 3.28 0.0 0 0 253.51 419.64
  Z
  M 253.91 440.40
  A 3.43 3.43 0.0 0 0 250.48 436.97
  A 3.43 3.43 0.0 0 0 247.05 440.40
  A 3.43 3.43 0.0 0 0 250.48 443.83
  A 3.43 3.43 0.0 0 0 253.91 440.40
  Z"
/>
</svg>
