<?xml version="1.0" encoding="UTF-8" standalone="no"?>
<!DOCTYPE svg PUBLIC "-//W3C//DTD SVG 1.1//EN" "http://www.w3.org/Graphics/SVG/1.1/DTD/svg11.dtd">
<svg xmlns="http://www.w3.org/2000/svg" version="1.1" viewBox="0.00 0.00 1000.00 1000.00">
<path fill="#00db71" d="
  M 152.56 483.10
  L 152.56 553.60
  A 0.40 0.39 -90.0 0 1 152.17 554.00
  L 116.02 554.00
  A 0.98 0.97 73.4 0 1 115.20 553.55
  L 51.18 453.61
  Q 50.60 452.70 50.60 453.78
  L 50.60 553.81
  A 0.19 0.19 0.0 0 1 50.41 554.00
  L 14.02 554.00
  Q 13.55 554.00 13.55 553.52
  L 13.55 392.03
  Q 13.55 391.59 13.99 391.59
  L 50.29 391.59
  Q 50.58 391.59 50.73 391.83
  L 114.85 491.92
  Q 115.46 492.88 115.46 491.74
  L 115.46 392.58
  Q 115.46 391.59 116.45 391.59
  L 152.01 391.59
  A 0.55 0.55 0.0 0 1 152.56 392.14
  L 152.56 466.82
  Q 152.56 467.28 152.74 466.85
  C 154.46 462.93 157.49 457.53 160.97 454.97
  Q 161.48 454.59 161.70 454.28
  A 0.99 0.98 -37.3 0 0 161.83 453.38
  C 159.47 446.81 160.26 440.05 160.86 433.76
  Q 161.06 431.68 160.27 430.23
  A 1.94 1.93 71.6 0 1 161.69 427.38
  Q 164.05 427.04 166.14 425.62
  Q 171.82 421.79 176.14 419.76
  C 177.54 419.11 179.68 418.78 181.15 418.07
  Q 181.60 417.85 181.73 417.36
  Q 183.17 412.02 184.43 409.95
  C 187.86 404.35 191.31 400.00 191.46 397.44
  A 1.68 1.66 -69.3 0 1 194.16 396.21
  Q 194.88 396.78 196.77 396.73
  Q 199.53 396.67 206.51 396.06
  Q 211.70 395.61 217.30 397.79
  Q 217.77 397.97 218.10 397.59
  Q 223.01 392.06 229.15 389.15
  C 231.86 387.87 236.41 386.04 237.64 384.16
  Q 237.92 383.73 238.42 383.63
  Q 240.05 383.29 240.86 384.11
  Q 242.38 385.64 242.48 385.71
  Q 244.68 387.24 249.50 389.47
  Q 254.37 391.73 259.52 397.13
  Q 259.85 397.48 260.30 397.31
  Q 266.31 395.03 271.25 395.53
  C 276.04 396.02 280.49 396.82 283.89 395.58
  Q 284.34 395.42 284.80 395.57
  Q 286.51 396.13 286.37 397.85
  Q 286.33 398.38 286.55 398.88
  Q 287.55 401.14 291.25 406.49
  Q 294.00 410.47 295.71 416.72
  Q 295.84 417.20 296.33 417.31
  Q 302.38 418.75 306.05 421.24
  C 308.67 423.03 313.32 426.92 315.99 426.77
  A 1.84 1.83 11.6 0 1 317.74 429.42
  C 316.35 432.19 317.30 436.65 317.57 440.93
  Q 317.92 446.70 315.97 452.77
  Q 315.81 453.25 316.20 453.56
  Q 321.27 457.74 324.27 463.92
  Q 324.73 464.86 326.31 468.02
  Q 326.51 468.42 326.55 467.98
  Q 329.82 435.79 352.12 414.36
  C 368.21 398.90 390.50 389.00 413.21 388.69
  Q 435.72 388.38 455.99 396.59
  Q 461.78 398.94 467.45 403.48
  Q 467.80 403.76 467.60 404.16
  L 452.39 434.59
  Q 452.20 434.98 451.82 434.76
  C 449.98 433.68 448.54 432.52 446.90 431.74
  Q 422.88 420.32 398.73 428.51
  Q 379.48 435.04 371.00 453.76
  C 362.93 471.55 366.59 490.53 379.81 504.99
  C 390.62 516.81 406.06 520.96 421.75 520.43
  Q 438.20 519.88 451.71 510.86
  Q 452.17 510.55 452.42 511.05
  L 467.66 541.60
  A 0.59 0.59 0.0 0 1 467.47 542.35
  Q 455.23 550.72 440.74 553.99
  C 427.14 557.07 412.27 558.10 398.94 555.58
  C 361.47 548.50 331.37 519.14 326.82 480.80
  Q 326.66 479.43 326.19 480.72
  Q 323.27 488.82 316.67 494.88
  Q 316.29 495.23 316.46 495.71
  Q 318.68 502.10 318.01 509.06
  C 317.80 511.25 316.87 516.70 318.12 519.16
  A 1.72 1.72 0.0 0 1 316.82 521.64
  Q 315.80 521.78 314.41 522.44
  C 310.88 524.10 303.41 529.45 297.12 531.11
  Q 296.68 531.22 296.57 531.67
  C 295.14 538.13 292.22 542.09 287.63 549.17
  Q 287.24 549.78 286.98 551.27
  Q 286.75 552.56 286.14 553.03
  Q 285.18 553.76 284.10 553.00
  Q 283.70 552.71 283.21 552.68
  Q 278.73 552.37 278.25 552.46
  Q 268.94 554.10 261.07 551.49
  Q 260.62 551.34 260.30 551.70
  C 255.28 557.30 250.82 559.39 244.13 562.61
  Q 241.78 563.74 240.66 565.29
  A 1.86 1.86 0.0 0 1 237.71 565.39
  Q 236.51 563.93 235.39 563.35
  C 228.05 559.47 223.87 557.34 218.90 552.25
  Q 218.53 551.87 218.01 552.02
  Q 210.37 554.31 202.16 553.23
  C 199.37 552.87 196.89 552.73 194.63 553.61
  A 1.94 1.93 -13.7 0 1 192.00 552.02
  C 191.80 550.11 190.68 548.13 189.75 546.81
  Q 184.59 539.49 182.63 532.46
  Q 182.49 531.97 181.99 531.83
  C 179.76 531.20 177.89 530.87 176.25 530.00
  Q 171.31 527.37 165.48 523.42
  Q 164.05 522.46 162.31 522.41
  A 1.93 1.93 0.0 0 1 160.59 519.72
  Q 161.42 517.78 161.25 515.52
  C 160.65 507.69 160.15 503.04 162.43 496.42
  Q 162.58 496.00 162.23 495.73
  Q 156.04 490.93 153.02 483.01
  Q 152.56 481.79 152.56 483.10
  Z
  M 238.17 406.49
  L 239.79 406.49
  Q 240.27 406.49 240.44 406.94
  C 241.19 408.94 246.08 411.23 247.74 411.89
  Q 248.18 412.07 248.29 411.61
  Q 250.13 403.65 256.77 398.93
  A 0.38 0.37 51.7 0 0 256.83 398.37
  C 252.26 393.35 244.78 390.62 239.69 387.22
  Q 239.27 386.93 238.85 387.22
  Q 236.67 388.69 228.64 392.63
  Q 224.82 394.50 220.79 398.85
  Q 220.43 399.24 220.86 399.56
  Q 227.10 404.34 227.69 412.25
  Q 227.75 412.94 228.37 412.63
  L 236.97 408.34
  Q 237.49 408.08 237.49 407.49
  L 237.49 407.17
  Q 237.49 406.49 238.17 406.49
  Z
  M 272.19 415.85
  Q 272.23 415.98 272.18 416.48
  Q 272.14 416.85 272.26 417.09
  Q 273.99 420.78 276.68 424.10
  Q 277.01 424.51 277.34 424.11
  Q 283.16 417.28 292.08 416.76
  Q 292.74 416.72 292.52 416.10
  C 291.50 413.16 290.35 410.35 288.60 407.85
  Q 285.44 403.31 283.78 399.38
  Q 283.57 398.87 283.03 398.96
  C 278.75 399.64 272.88 398.23 268.78 398.49
  Q 265.40 398.69 262.37 399.59
  Q 261.44 399.86 261.85 400.73
  Q 264.97 407.45 261.65 414.67
  Q 261.43 415.16 261.97 415.21
  Q 266.69 415.60 269.83 414.41
  A 2.01 1.73 72.2 0 1 272.19 415.85
  Z
  M 204.90 416.18
  C 206.96 417.41 213.43 416.73 214.99 416.51
  Q 215.50 416.44 215.34 415.96
  Q 212.76 408.32 215.94 400.92
  Q 216.16 400.42 215.64 400.24
  Q 210.70 398.55 206.00 399.07
  Q 199.10 399.84 194.84 399.34
  Q 194.33 399.28 194.08 399.74
  C 191.03 405.45 186.81 410.84 184.76 417.04
  A 0.57 0.57 0.0 0 0 185.29 417.79
  Q 193.91 417.86 198.54 424.69
  A 0.55 0.55 0.0 0 0 199.47 424.66
  L 202.43 419.55
  Q 202.73 419.01 202.62 418.40
  Q 202.37 417.07 204.09 416.16
  Q 204.50 415.94 204.90 416.18
  Z
  M 252.24 414.36
  Q 254.38 415.73 257.61 414.98
  A 1.30 1.24 7.0 0 0 258.44 414.37
  Q 262.06 407.92 259.19 401.74
  A 0.58 0.58 0.0 0 0 258.34 401.50
  Q 252.75 405.20 251.15 412.12
  Q 250.83 413.45 252.24 414.36
  Z
  M 221.01 416.34
  Q 223.15 415.92 224.47 414.60
  Q 224.83 414.25 224.82 413.75
  Q 224.74 406.48 219.25 402.05
  Q 218.72 401.62 218.48 402.26
  Q 216.07 408.80 217.96 414.56
  Q 218.69 416.80 221.01 416.34
  Z
  M 237.01 424.15
  A 0.21 0.21 0.0 0 0 237.38 424.11
  Q 239.79 418.40 248.40 415.83
  Q 248.56 415.78 248.41 415.69
  L 239.45 410.52
  Q 239.27 410.41 239.09 410.51
  L 227.50 416.29
  Q 226.14 416.97 227.61 417.33
  Q 233.28 418.72 237.01 424.15
  Z
  M 257.77 418.57
  C 261.49 421.80 263.15 425.67 263.58 430.63
  Q 263.63 431.18 264.10 430.89
  C 267.69 428.66 271.87 428.38 275.93 429.24
  Q 276.73 429.41 276.28 428.73
  L 269.55 418.58
  Q 269.21 418.08 268.61 418.09
  L 257.94 418.11
  Q 257.24 418.11 257.77 418.57
  Z
  M 249.21 432.05
  Q 253.23 433.12 258.51 435.60
  Q 258.95 435.81 259.17 435.37
  C 262.31 428.98 258.68 422.12 253.13 418.37
  Q 252.93 418.23 252.89 418.22
  Q 252.89 418.22 252.65 418.24
  C 245.97 418.71 239.39 422.84 238.92 429.94
  Q 238.89 430.44 239.38 430.47
  Q 245.19 430.97 249.21 432.05
  Z
  M 200.19 429.87
  C 204.82 428.31 208.96 428.83 213.41 430.94
  Q 213.91 431.18 213.89 430.62
  C 213.78 426.44 215.64 422.73 218.40 419.69
  Q 218.95 419.09 218.14 419.13
  L 206.10 419.81
  Q 205.50 419.85 205.21 420.37
  L 199.89 429.50
  Q 199.54 430.10 200.19 429.87
  Z
  M 226.68 432.25
  Q 230.50 431.19 235.32 430.80
  A 0.41 0.40 85.3 0 0 235.69 430.36
  C 235.13 423.60 229.73 420.20 223.51 419.56
  Q 223.35 419.54 223.19 419.58
  Q 223.03 419.63 222.90 419.72
  C 217.89 423.47 215.00 429.16 217.99 435.25
  A 0.41 0.40 63.8 0 0 218.52 435.43
  Q 222.87 433.30 226.68 432.25
  Z
  M 278.98 427.19
  C 280.04 430.47 281.79 431.64 284.67 432.87
  Q 285.15 433.08 285.61 432.83
  Q 293.20 428.61 293.20 420.24
  A 0.60 0.60 0.0 0 0 292.59 419.64
  Q 284.41 419.81 279.14 426.33
  A 0.93 0.92 -34.8 0 0 278.98 427.19
  Z
  M 297.97 441.81
  Q 296.42 445.69 297.37 450.46
  Q 297.47 450.98 297.96 450.79
  Q 305.54 447.93 312.87 451.43
  Q 313.32 451.64 313.45 451.17
  C 315.55 443.82 313.93 437.95 314.37 430.12
  Q 314.40 429.61 313.93 429.42
  Q 310.98 428.20 307.13 425.44
  C 303.74 423.02 300.21 421.41 296.69 420.28
  A 0.41 0.41 0.0 0 0 296.15 420.66
  Q 295.93 429.76 288.31 434.66
  A 0.57 0.57 0.0 0 0 288.33 435.64
  L 294.65 439.29
  Q 295.10 439.55 295.60 439.47
  Q 297.31 439.22 297.97 440.96
  Q 298.14 441.39 297.97 441.81
  Z
  M 184.37 420.66
  Q 184.16 420.85 184.15 421.29
  Q 183.95 429.28 190.36 433.80
  A 0.91 0.90 -38.8 0 0 191.24 433.89
  C 192.13 433.51 194.16 432.72 194.91 432.02
  C 195.66 431.32 196.61 429.36 197.05 428.49
  A 0.91 0.90 -47.0 0 0 197.03 427.61
  Q 192.99 420.88 185.01 420.49
  Q 184.57 420.47 184.37 420.66
  Z
  M 180.06 440.82
  C 180.82 438.42 182.37 439.38 183.76 438.70
  Q 186.38 437.42 187.96 436.26
  Q 188.38 435.95 187.97 435.61
  Q 181.46 430.34 181.16 421.80
  Q 181.14 421.18 180.56 421.38
  Q 175.38 423.12 170.92 426.18
  C 168.62 427.76 165.98 429.05 164.01 430.01
  Q 163.55 430.24 163.62 430.75
  Q 163.93 433.23 163.13 442.02
  Q 162.72 446.44 164.45 451.73
  Q 164.61 452.23 165.09 452.00
  Q 172.39 448.44 179.78 452.30
  Q 180.34 452.59 180.37 451.96
  L 180.82 443.57
  Q 180.85 443.04 180.60 442.56
  Q 180.31 442.02 180.11 441.73
  Q 179.88 441.42 180.06 440.82
  Z
  M 268.56 443.26
  Q 270.90 445.50 274.21 449.57
  Q 274.53 449.96 274.95 449.68
  C 280.62 445.88 281.31 439.41 278.60 433.27
  Q 278.54 433.14 278.40 433.00
  Q 278.23 432.84 278.09 432.79
  C 271.84 430.36 265.41 431.33 261.87 437.17
  Q 261.60 437.60 262.01 437.91
  Q 266.22 441.03 268.56 443.26
  Z
  M 197.48 434.18
  Q 197.46 434.19 197.38 434.36
  C 194.53 440.02 194.33 447.76 200.14 451.57
  Q 200.60 451.87 200.89 451.40
  Q 203.80 446.80 206.99 443.57
  Q 210.19 440.34 214.75 437.38
  Q 215.22 437.08 214.91 436.62
  C 211.03 430.86 203.30 431.15 197.67 434.07
  Q 197.50 434.15 197.48 434.18
  Z
  M 281.22 447.51
  A 0.21 0.21 0.0 0 0 281.44 447.81
  Q 287.66 447.04 294.25 453.27
  Q 294.38 453.39 294.38 453.21
  L 294.38 442.76
  Q 294.38 442.55 294.21 442.44
  L 283.30 435.22
  Q 282.02 434.37 282.44 435.84
  Q 284.09 441.50 281.22 447.51
  Z
  M 194.78 450.99
  A 0.22 0.21 69.0 0 0 194.94 450.64
  Q 191.14 445.63 193.25 436.77
  Q 193.29 436.60 193.13 436.69
  L 184.05 441.94
  Q 183.86 442.04 183.86 442.25
  L 183.06 455.36
  Q 182.97 456.89 184.03 455.79
  Q 188.13 451.51 194.78 450.99
  Z
  M 280.03 462.30
  Q 281.36 467.03 281.65 471.93
  A 0.36 0.35 -0.6 0 0 282.00 472.26
  C 290.27 472.30 293.95 465.71 294.35 458.38
  Q 294.35 458.38 294.32 458.28
  Q 294.29 458.18 294.29 458.18
  C 290.13 452.13 283.56 448.43 276.52 452.77
  A 0.36 0.35 -30.8 0 0 276.40 453.23
  Q 278.70 457.57 280.03 462.30
  Z
  M 297.50 454.67
  Q 297.12 458.06 299.28 460.06
  Q 299.61 460.35 300.03 460.35
  Q 307.14 460.34 311.50 454.78
  A 0.43 0.43 0.0 0 0 311.35 454.13
  Q 305.03 451.15 298.27 453.67
  Q 297.58 453.93 297.50 454.67
  Z
  M 179.40 461.65
  Q 180.79 459.44 179.99 456.14
  A 1.33 1.27 -83.6 0 0 179.35 455.30
  Q 172.71 451.65 166.41 454.65
  A 0.60 0.59 -29.9 0 0 166.17 455.52
  Q 170.02 461.22 177.12 462.79
  Q 178.49 463.10 179.40 461.65
  Z
  M 195.73 463.70
  Q 196.62 460.17 198.72 455.53
  Q 198.90 455.14 198.51 454.95
  C 192.89 452.28 186.94 455.53 183.73 460.43
  Q 183.61 460.61 183.60 460.64
  Q 183.60 460.64 183.62 460.85
  C 184.11 466.69 187.80 472.38 194.01 472.71
  Q 194.44 472.73 194.47 472.30
  Q 194.83 467.22 195.73 463.70
  Z
  M 306.69 472.07
  Q 306.87 473.83 305.55 474.10
  Q 304.97 474.22 304.70 474.75
  L 300.67 482.82
  Q 300.33 483.51 301.08 483.63
  Q 309.72 485.03 314.61 492.10
  Q 314.93 492.56 315.32 492.15
  C 320.57 486.64 323.02 480.76 326.40 475.06
  Q 326.56 474.77 326.42 474.48
  C 322.63 466.92 320.28 460.95 314.82 456.08
  A 0.46 0.45 36.9 0 0 314.14 456.17
  Q 309.88 462.74 301.52 463.19
  A 0.35 0.35 0.0 0 0 301.21 463.66
  Q 303.17 468.90 306.27 471.32
  Q 306.64 471.61 306.69 472.07
  Z
  M 172.13 477.87
  A 1.85 1.85 0.0 0 1 171.61 474.95
  Q 175.02 471.34 176.73 466.23
  Q 176.85 465.86 176.50 465.73
  Q 173.79 464.72 172.52 464.24
  Q 167.06 462.19 163.67 456.95
  Q 163.43 456.58 163.09 456.87
  C 158.26 461.13 156.02 466.96 153.14 472.25
  A 4.78 4.76 -44.1 0 0 153.06 476.66
  C 156.17 482.88 158.22 488.67 163.57 492.90
  Q 163.95 493.20 164.23 492.82
  Q 168.62 486.89 176.39 486.07
  Q 177.46 485.95 176.92 485.02
  L 173.27 478.70
  Q 173.06 478.34 172.69 478.15
  L 172.13 477.87
  Z
  M 296.66 462.71
  C 295.70 467.55 293.17 470.91 289.08 473.74
  Q 288.62 474.06 289.12 474.32
  C 292.83 476.33 295.14 479.81 296.41 483.76
  Q 296.67 484.54 297.03 483.81
  L 302.49 472.94
  Q 302.76 472.40 302.45 471.88
  L 297.13 462.64
  Q 296.79 462.03 296.66 462.71
  Z
  M 181.26 486.18
  C 182.22 481.29 184.78 477.89 188.91 475.02
  Q 189.37 474.70 188.87 474.43
  C 185.11 472.41 182.77 468.89 181.48 464.90
  Q 181.22 464.11 180.85 464.85
  L 175.35 475.85
  Q 175.08 476.40 175.39 476.92
  L 180.78 486.26
  Q 181.13 486.87 181.26 486.18
  Z
  M 280.46 484.63
  Q 279.70 487.75 277.86 492.62
  Q 277.68 493.09 278.13 493.31
  C 284.22 496.29 290.12 493.66 294.04 488.27
  Q 294.13 488.15 294.17 487.96
  Q 294.23 487.74 294.20 487.60
  C 293.18 481.01 289.13 475.98 282.36 475.84
  Q 281.86 475.83 281.80 476.34
  Q 281.22 481.50 280.46 484.63
  Z
  M 183.45 490.51
  Q 183.45 490.53 183.56 490.69
  C 187.11 495.89 193.74 499.79 199.85 496.57
  Q 200.34 496.31 200.07 495.83
  Q 197.47 491.09 196.20 486.76
  Q 194.93 482.43 194.55 477.03
  Q 194.51 476.48 193.97 476.53
  C 187.09 477.13 183.62 484.00 183.44 490.29
  Q 183.44 490.48 183.45 490.51
  Z
  M 298.89 486.86
  Q 296.70 489.86 297.67 492.91
  Q 297.82 493.36 298.22 493.59
  Q 304.94 497.41 312.05 494.51
  A 0.47 0.46 -28.5 0 0 312.26 493.81
  Q 307.90 487.59 300.16 486.33
  Q 299.36 486.20 298.89 486.86
  Z
  M 180.44 494.49
  Q 180.79 491.16 178.66 489.22
  Q 178.34 488.94 177.92 488.94
  Q 170.96 489.00 166.73 494.47
  A 0.42 0.42 0.0 0 0 166.88 495.11
  Q 173.09 497.99 179.69 495.48
  Q 180.37 495.22 180.44 494.49
  Z
  M 282.99 497.64
  A 0.22 0.22 0.0 0 0 282.84 497.99
  Q 286.66 503.02 284.56 511.93
  Q 284.52 512.10 284.68 512.01
  L 293.80 506.72
  Q 293.99 506.61 293.99 506.40
  L 294.77 493.22
  Q 294.85 491.68 293.79 492.79
  Q 289.68 497.10 282.99 497.64
  Z
  M 202.39 493.35
  Q 202.45 493.50 202.54 493.58
  Q 202.69 493.72 202.64 493.52
  Q 202.50 493.01 202.40 493.09
  Q 202.31 493.18 202.39 493.35
  Z
  M 196.61 500.99
  A 0.21 0.21 0.0 0 0 196.39 500.69
  Q 190.18 501.42 183.63 495.15
  Q 183.51 495.03 183.51 495.21
  L 183.44 505.64
  Q 183.43 505.86 183.61 505.97
  L 194.46 513.25
  Q 195.73 514.10 195.31 512.64
  Q 193.71 506.97 196.61 500.99
  Z
  M 269.89 504.10
  Q 266.94 507.21 262.11 510.77
  Q 261.70 511.07 261.99 511.48
  C 266.23 517.47 274.22 517.55 280.35 514.37
  Q 280.57 514.26 280.57 514.26
  Q 280.60 514.23 280.70 514.00
  C 283.55 507.72 283.05 499.74 276.85 495.82
  Q 276.42 495.55 276.15 495.98
  Q 272.84 500.99 269.89 504.10
  Z
  M 296.21 509.45
  Q 293.50 509.91 290.10 512.30
  Q 289.61 512.64 290.05 513.04
  Q 296.65 518.88 296.93 527.39
  A 0.58 0.58 0.0 0 0 297.73 527.91
  Q 300.19 526.95 303.54 525.32
  C 307.07 523.61 310.43 520.51 314.30 519.20
  A 0.65 0.65 0.0 0 0 314.74 518.51
  C 314.13 512.30 316.32 505.06 313.90 497.38
  Q 313.74 496.85 313.23 497.07
  Q 305.43 500.41 298.06 496.72
  Q 297.41 496.40 297.38 497.12
  L 296.96 505.43
  A 1.17 1.13 -66.4 0 0 297.29 506.31
  Q 298.53 507.56 296.97 509.07
  A 1.41 1.41 0.0 0 1 296.21 509.45
  Z
  M 180.41 508.57
  C 179.19 507.09 180.37 505.93 180.53 504.70
  Q 180.83 502.36 180.57 499.16
  Q 180.52 498.61 179.99 498.75
  Q 172.69 500.61 165.69 497.78
  Q 165.21 497.59 165.04 498.08
  C 162.43 505.42 164.58 513.18 164.05 519.24
  Q 164.00 519.79 164.52 519.96
  Q 166.96 520.75 171.29 523.79
  Q 175.98 527.06 181.82 528.84
  Q 182.27 528.98 182.27 528.51
  Q 182.25 519.66 189.97 514.66
  Q 190.40 514.38 190.02 514.03
  C 187.69 511.96 184.31 509.35 181.27 509.03
  Q 180.74 508.98 180.41 508.57
  Z
  M 208.20 506.13
  Q 205.53 503.64 202.46 499.54
  Q 202.21 499.19 201.85 499.44
  C 196.78 503.10 196.76 509.91 199.51 515.12
  Q 199.61 515.31 199.61 515.31
  Q 199.63 515.33 199.83 515.42
  C 205.20 517.81 212.01 517.33 215.31 512.02
  Q 215.54 511.65 215.17 511.41
  Q 210.87 508.63 208.20 506.13
  Z
  M 214.0853 506.9474
  A 1.53 0.13 43.2 0 0 213.0590 505.8052
  A 1.53 0.13 43.2 0 0 211.8547 504.8526
  A 1.53 0.13 43.2 0 0 212.8810 505.9948
  A 1.53 0.13 43.2 0 0 214.0853 506.9474
  Z
  M 242.99 517.68
  A 0.78 0.77 86.6 0 0 242.32 518.44
  C 242.23 524.95 248.55 527.99 254.18 529.13
  Q 254.64 529.22 255.01 528.93
  Q 263.44 522.46 259.99 512.83
  A 0.62 0.62 0.0 0 0 259.12 512.49
  Q 251.50 516.48 242.99 517.68
  Z
  M 225.40 530.31
  Q 225.43 530.32 225.63 530.30
  C 232.04 529.75 238.84 525.79 239.04 518.74
  Q 239.06 518.18 238.49 518.17
  Q 232.97 518.11 228.47 517.07
  Q 223.97 516.03 218.97 513.66
  Q 218.46 513.42 218.23 513.93
  C 215.31 520.36 219.69 526.90 225.22 530.21
  Q 225.38 530.31 225.40 530.31
  Z
  M 286.67 514.54
  C 283.41 515.56 282.24 517.28 281.00 520.11
  Q 280.78 520.59 281.03 521.04
  Q 285.13 528.59 293.41 528.67
  A 0.59 0.59 0.0 0 0 294.01 528.07
  Q 293.92 519.98 287.52 514.71
  A 0.92 0.91 55.7 0 0 286.67 514.54
  Z
  M 199.38 521.94
  C 198.32 518.66 196.57 517.49 193.70 516.26
  Q 193.22 516.05 192.76 516.30
  Q 185.17 520.53 185.18 528.89
  A 0.60 0.60 0.0 0 0 185.79 529.49
  Q 193.96 529.32 199.23 522.80
  A 0.93 0.92 -34.8 0 0 199.38 521.94
  Z
  M 220.09 530.08
  C 216.35 526.82 214.69 522.92 214.27 517.94
  Q 214.22 517.38 213.74 517.68
  C 210.13 519.92 205.93 520.19 201.85 519.32
  Q 201.04 519.15 201.49 519.84
  L 208.25 530.04
  Q 208.59 530.55 209.19 530.54
  L 219.92 530.53
  Q 220.62 530.53 220.09 530.08
  Z
  M 277.73 518.50
  C 273.10 520.08 268.95 519.57 264.49 517.47
  Q 263.99 517.23 264.01 517.79
  C 264.13 521.98 262.28 525.70 259.52 528.75
  Q 258.98 529.36 259.79 529.31
  L 271.84 528.59
  Q 272.44 528.55 272.73 528.04
  L 278.04 518.87
  Q 278.38 518.28 277.73 518.50
  Z
  M 272.65 532.41
  C 271.06 531.11 265.30 531.84 263.20 532.22
  Q 262.67 532.31 262.85 532.82
  Q 265.60 540.76 262.43 548.22
  Q 262.21 548.74 262.75 548.90
  Q 268.33 550.62 271.69 550.20
  Q 280.66 549.08 283.81 549.76
  Q 284.32 549.87 284.51 549.38
  C 286.58 544.04 291.79 538.92 293.35 532.04
  Q 293.46 531.52 292.93 531.50
  Q 283.90 531.20 279.26 523.84
  Q 278.95 523.35 278.58 523.80
  Q 275.56 527.55 275.09 531.22
  Q 275.04 531.66 274.65 531.89
  L 273.61 532.49
  Q 273.11 532.78 272.65 532.41
  Z
  M 240.74 524.29
  A 0.21 0.21 0.0 0 0 240.36 524.33
  Q 237.96 530.07 229.31 532.67
  Q 229.15 532.72 229.30 532.81
  L 238.31 537.98
  Q 238.49 538.09 238.67 537.99
  L 250.30 532.16
  Q 251.67 531.48 250.19 531.12
  Q 244.49 529.74 240.74 524.29
  Z
  M 208.19 534.06
  A 1.80 1.80 0.0 0 1 205.69 532.50
  C 205.58 530.47 203.20 527.35 201.85 525.37
  Q 201.37 524.66 200.80 525.31
  Q 194.97 532.02 186.32 532.43
  Q 185.79 532.46 185.94 532.97
  C 187.83 539.26 191.91 543.73 194.53 549.66
  Q 194.75 550.15 195.28 550.11
  Q 200.68 549.78 206.96 550.64
  C 210.01 551.06 213.54 550.17 216.17 549.62
  A 0.65 0.65 0.0 0 0 216.62 548.70
  Q 213.13 541.57 216.91 534.09
  Q 217.16 533.58 216.60 533.49
  Q 211.41 532.70 208.19 534.06
  Z
  M 258.63 532.15
  Q 255.00 531.87 252.95 534.26
  Q 252.65 534.61 252.67 535.06
  Q 252.94 542.64 259.03 547.08
  A 0.46 0.45 29.8 0 0 259.72 546.90
  Q 262.66 540.05 259.73 532.94
  Q 259.42 532.21 258.63 532.15
  Z
  M 226.71 535.06
  Q 223.87 532.89 220.91 533.75
  Q 220.48 533.88 220.24 534.26
  Q 216.42 540.64 219.05 547.55
  A 0.45 0.45 0.0 0 0 219.71 547.77
  Q 225.80 543.72 227.19 536.30
  Q 227.33 535.53 226.71 535.06
  Z
  M 240.44 541.11
  A 1.84 1.70 35.6 0 1 237.45 541.49
  Q 234.92 538.69 230.77 537.06
  Q 230.24 536.85 230.11 537.41
  Q 228.23 545.54 221.72 550.01
  Q 221.24 550.34 221.63 550.77
  C 226.26 555.97 232.86 557.98 238.67 561.87
  Q 239.09 562.15 239.51 561.86
  Q 240.81 560.96 249.92 556.44
  Q 253.36 554.74 257.53 550.27
  Q 257.89 549.89 257.46 549.59
  Q 250.67 544.91 249.75 536.63
  Q 249.69 536.09 249.16 536.24
  Q 244.82 537.49 241.07 540.56
  Q 240.46 541.05 240.44 541.11
  Z"
/>
<path fill="#00db71" d="
  M 886.04 487.28
  Q 886.30 488.13 886.30 487.25
  L 886.30 453.61
  Q 886.30 453.03 886.88 453.03
  L 920.59 453.03
  Q 921.15 453.03 921.15 453.59
  L 921.15 462.91
  Q 921.15 464.16 922.02 463.27
  C 931.97 453.00 944.39 448.31 958.78 450.67
  C 978.43 453.90 994.63 465.13 994.76 486.52
  Q 994.82 497.03 994.80 553.65
  A 0.35 0.35 0.0 0 1 994.45 554.00
  L 960.22 554.00
  A 0.34 0.33 -90.0 0 1 959.89 553.66
  Q 959.99 518.92 959.85 496.85
  C 959.77 484.69 950.61 475.29 937.92 477.71
  C 929.10 479.40 921.14 488.03 921.15 497.50
  Q 921.18 533.38 921.15 553.52
  Q 921.15 554.00 920.66 554.00
  L 886.93 554.00
  Q 886.30 554.00 886.30 553.36
  L 886.30 520.09
  Q 886.30 519.79 886.20 520.08
  C 879.20 541.87 857.54 554.94 835.28 556.64
  C 809.54 558.59 785.65 550.47 772.65 527.16
  Q 772.40 526.72 772.19 527.18
  C 763.96 545.32 747.76 556.64 727.53 556.96
  Q 707.32 557.27 694.04 542.98
  Q 693.30 542.18 693.30 543.28
  L 693.30 553.48
  Q 693.30 554.00 692.77 554.00
  L 659.31 554.00
  Q 658.80 554.00 658.80 553.49
  L 658.80 475.13
  Q 658.80 474.08 658.33 475.02
  L 653.14 485.41
  Q 652.96 485.77 652.63 485.55
  Q 642.86 478.96 630.80 480.82
  C 621.86 482.20 617.15 488.37 614.94 496.49
  Q 614.12 499.47 614.14 505.60
  Q 614.19 532.49 614.15 553.53
  Q 614.15 554.00 613.68 554.00
  L 579.77 554.00
  Q 579.29 554.00 579.29 553.52
  L 579.29 453.49
  A 0.46 0.46 0.0 0 1 579.75 453.03
  L 613.84 453.03
  A 0.31 0.31 0.0 0 1 614.15 453.34
  L 614.15 466.97
  Q 614.15 467.89 614.69 467.15
  C 625.17 452.75 640.69 446.79 658.32 452.11
  A 0.38 0.37 43.4 0 0 658.80 451.75
  L 658.80 384.95
  A 0.26 0.25 -90.0 0 1 659.05 384.69
  L 693.06 384.69
  Q 693.67 384.69 693.67 385.31
  L 693.67 462.13
  A 0.24 0.24 0.0 0 0 694.08 462.31
  Q 703.60 453.27 716.74 450.98
  Q 738.31 447.22 754.98 458.72
  Q 765.34 465.86 772.44 480.37
  Q 772.54 480.59 772.67 480.38
  Q 784.85 459.44 808.11 452.82
  C 832.49 445.88 859.31 451.51 876.54 470.61
  Q 883.28 478.08 886.04 487.28
  Z
  M 740.20 503.60
  A 23.80 23.80 0.0 0 0 716.40 479.80
  A 23.80 23.80 0.0 0 0 692.60 503.60
  A 23.80 23.80 0.0 0 0 716.40 527.40
  A 23.80 23.80 0.0 0 0 740.20 503.60
  Z
  M 851.84 503.60
  A 23.80 23.80 0.0 0 0 828.04 479.80
  A 23.80 23.80 0.0 0 0 804.24 503.60
  A 23.80 23.80 0.0 0 0 828.04 527.40
  A 23.80 23.80 0.0 0 0 851.84 503.60
  Z"
/>
<circle fill="#00db71" cx="239.00" cy="393.95" r="1.43"/>
<circle fill="#00db71" cx="238.84" cy="402.70" r="1.43"/>
<circle fill="#00db71" cx="279.23" cy="404.04" r="1.46"/>
<circle fill="#00db71" cx="197.58" cy="405.76" r="1.42"/>
<circle fill="#00db71" cx="274.10" cy="411.26" r="1.43"/>
<circle fill="#00db71" cx="201.97" cy="413.51" r="1.42"/>
<ellipse fill="#00db71" cx="0.00" cy="0.00" transform="translate(309.00,433.26) rotate(60.4)" rx="1.50" ry="1.36"/>
<circle fill="#00db71" cx="169.17" cy="433.93" r="1.42"/>
<circle fill="#00db71" cx="301.68" cy="438.26" r="1.43"/>
<circle fill="#00db71" cx="176.81" cy="438.43" r="1.42"/>
<path fill="#00db71" d="
  M 539.50 461.86
  L 539.50 453.55
  Q 539.50 453.03 540.03 453.03
  L 573.84 453.03
  Q 574.41 453.03 574.41 453.59
  L 574.41 553.67
  A 0.33 0.33 0.0 0 1 574.08 554.00
  L 540.45 554.00
  A 0.55 0.54 90.0 0 1 539.91 553.45
  L 539.91 543.55
  Q 539.91 542.25 539.01 543.19
  Q 525.55 557.22 505.74 556.97
  C 458.71 556.37 441.27 497.57 470.43 465.67
  Q 484.07 450.75 504.71 450.12
  Q 525.29 449.49 538.95 462.11
  Q 539.50 462.62 539.50 461.86
  Z
  M 540.59 503.60
  A 23.80 23.80 0.0 0 0 516.79 479.80
  A 23.80 23.80 0.0 0 0 492.99 503.60
  A 23.80 23.80 0.0 0 0 516.79 527.40
  A 23.80 23.80 0.0 0 0 540.59 503.60
  Z"
/>
<circle fill="#00db71" cx="311.42" cy="472.90" r="1.41"/>
<circle fill="#00db71" cx="320.20" cy="473.92" r="1.41"/>
<circle fill="#00db71" cx="155.71" cy="475.21" r="1.40"/>
<circle fill="#00db71" cx="164.52" cy="475.81" r="1.47"/>
<circle fill="#00db71" cx="302.94" cy="511.25" r="1.42"/>
<circle fill="#00db71" cx="174.30" cy="512.50" r="1.43"/>
<circle fill="#00db71" cx="310.54" cy="515.75" r="1.42"/>
<circle fill="#00db71" cx="167.00" cy="517.51" r="1.44"/>
<circle fill="#00db71" cx="276.49" cy="536.25" r="1.44"/>
<circle fill="#00db71" cx="202.28" cy="539.47" r="1.44"/>
<ellipse fill="#00db71" cx="0.00" cy="0.00" transform="translate(280.90,543.88) rotate(37.0)" rx="1.47" ry="1.32"/>
<circle fill="#00db71" cx="239.30" cy="546.20" r="1.43"/>
<circle fill="#00db71" cx="197.17" cy="546.73" r="1.44"/>
<circle fill="#00db71" cx="239.42" cy="554.94" r="1.44"/>
</svg>
